<?xml version="1.0" encoding="iso-8859-1"?>
<!-- Generator: Adobe Illustrator 16.0.0, SVG Export Plug-In . SVG Version: 6.00 Build 0)  -->
<!DOCTYPE svg PUBLIC "-//W3C//DTD SVG 1.1//EN" "http://www.w3.org/Graphics/SVG/1.1/DTD/svg11.dtd">
<svg version="1.1" id="Capa_1" xmlns="http://www.w3.org/2000/svg" xmlns:xlink="http://www.w3.org/1999/xlink" x="0px" y="0px"
	 width="97.403px" height="97.403px" viewBox="0 0 97.403 97.403" style="enable-background:new 0 0 97.403 97.403;"
	 xml:space="preserve">
<g>
	<g>
		<path d="M97.113,36.76c-0.306-0.442-0.809-0.706-1.346-0.706l-14.42-0.005l0.816-2.233c0.608-1.663,0.444-3.354-0.452-4.636
			c-0.858-1.229-2.289-1.935-3.927-1.935H66.538c-2.843,0-5.878,2.1-6.896,4.883l-1.555,3.911L46.89,36.034h-0.001
			c-0.661,0-1.258,0.397-1.512,1.01l-12.784,30.85c-0.209,0.506-0.152,1.08,0.151,1.535c0.304,0.455,0.813,0.729,1.36,0.729h50.039
			c0.681,0,1.29-0.422,1.53-1.061l11.625-30.83C97.487,37.764,97.419,37.201,97.113,36.76z M76.975,33.716l-0.854,2.33
			l-12.563-0.005l0.814-2.226c0.337-0.921,1.46-1.662,2.165-1.662c0,0,7.09,0,8.965,0C77.564,32.153,76.975,33.716,76.975,33.716z"
			/>
		<path d="M42.695,36.037l-3.377,0.002l-1.555-3.911c-1.02-2.783-4.054-4.883-6.897-4.883H19.618c-1.637,0-3.066,0.706-3.926,1.935
			c-0.896,1.283-1.061,2.973-0.452,4.636l0.816,2.233l-14.42,0.005c-0.537,0-1.04,0.264-1.346,0.706
			c-0.306,0.441-0.374,1.005-0.185,1.508L11.73,69.099c0.24,0.638,0.85,1.06,1.53,1.06h16.658c-0.419-1.073-0.423-2.272,0.028-3.358
			L42.695,36.037z M21.283,36.046l-0.854-2.33c0,0-0.59-1.563,1.473-1.563c1.874,0,8.964,0,8.964,0c0.706,0,1.829,0.741,2.166,1.662
			l0.815,2.226L21.283,36.046z"/>
	</g>
</g>
<g>
</g>
<g>
</g>
<g>
</g>
<g>
</g>
<g>
</g>
<g>
</g>
<g>
</g>
<g>
</g>
<g>
</g>
<g>
</g>
<g>
</g>
<g>
</g>
<g>
</g>
<g>
</g>
<g>
</g>
</svg>
