<?xml version="1.0" encoding="utf-8"?>
<svg xmlns="http://www.w3.org/2000/svg"
	xmlns:xlink="http://www.w3.org/1999/xlink"
	width="44px" height="44px" viewBox="0 0 44 44">
<filter filterUnits="objectBoundingBox" x="0.00" y="0.00" width="100.00" height="100.00" id="filter0">
<feFlood flood-color="rgb(85,85,85)" result="coFloodOut1"/>
<feComposite in="coFloodOut1" in2="SourceAlpha" operator="in" result="coOverlay1"/>
<feBlend in="coOverlay1" in2="SourceGraphic" mode="normal" result="colorOverlay1"/>
</filter>
<path fillRule="evenodd" d="M 43.93 21.85C 43.93 20.23 42.76 18.5 41.32 17.99 39.88 17.48 38.49 16.24 38.08 15.25 37.68 14.27 37.78 12.4 38.44 11.02 39.09 9.64 38.69 7.59 37.55 6.44 36.4 5.3 34.36 4.9 32.98 5.56 31.6 6.21 29.73 6.32 28.75 5.91 27.76 5.51 26.52 4.11 26.01 2.67 25.49 1.23 23.76 0.07 22.14 0.07 20.52 0.07 18.79 1.23 18.28 2.67 17.77 4.11 16.52 5.51 15.54 5.91 14.56 6.32 12.69 6.21 11.31 5.56 9.93 4.9 7.88 5.3 6.74 6.44 5.59 7.59 5.19 9.64 5.85 11.02 6.51 12.4 6.61 14.27 6.2 15.25 5.8 16.23 4.41 17.48 2.97 17.99 1.53 18.5 0.36 20.23 0.36 21.85 0.36 23.47 1.53 25.2 2.97 25.71 4.41 26.22 5.8 27.47 6.21 28.45 6.61 29.43 6.51 31.3 5.85 32.68 5.19 34.06 5.59 36.11 6.74 37.26 7.88 38.4 9.93 38.8 11.31 38.14 12.69 37.49 14.56 37.38 15.54 37.79 16.52 38.2 17.77 39.59 18.28 41.03 18.79 42.47 20.52 43.63 22.14 43.63 23.76 43.63 25.49 42.47 26.01 41.03 26.52 39.59 27.76 38.2 28.74 37.79 29.73 37.38 31.6 37.49 32.98 38.14 34.36 38.8 36.4 38.4 37.55 37.26 38.69 36.11 39.09 34.06 38.44 32.68 37.78 31.3 37.67 29.43 38.08 28.45 38.48 27.47 39.88 26.22 41.32 25.71 42.76 25.2 43.93 23.47 43.93 21.85ZM 22.14 29.84C 17.72 29.84 14.15 26.27 14.15 21.86 14.15 17.44 17.72 13.87 22.14 13.87 26.55 13.87 30.13 17.44 30.13 21.86 30.13 26.27 26.55 29.84 22.14 29.84Z" fill="rgb(0,0,0)" filter="url(#filter0)"/></svg>