<?xml version="1.0" encoding="utf-8"?>
<svg xmlns="http://www.w3.org/2000/svg"
	xmlns:xlink="http://www.w3.org/1999/xlink"
	width="49px" height="49px" viewBox="0 0 49 49">
<filter filterUnits="objectBoundingBox" x="0.00" y="0.00" width="100.00" height="100.00" id="filter0">
<feFlood flood-color="rgb(85,85,85)" result="coFloodOut1"/>
<feComposite in="coFloodOut1" in2="SourceAlpha" operator="in" result="coOverlay1"/>
<feBlend in="coOverlay1" in2="SourceGraphic" mode="normal" result="colorOverlay1"/>
</filter>
<path fillRule="evenodd" d="M 47.67 19.72C 47.67 19.72 33.4 33.99 33.4 33.99 33.4 33.99 0.53 48.46 0.53 48.46 0.53 48.46 15.01 15.59 15.01 15.59 15.01 15.59 29.28 1.33 29.28 1.33 29.9 0.71 30.9 0.71 31.53 1.33 32.15 1.95 32.15 2.95 31.53 3.58 31.53 3.58 17.68 17.42 17.68 17.42 17.68 17.42 9.11 36.89 9.11 36.89 9.11 36.89 12.11 39.89 12.11 39.89 12.11 39.89 31.57 31.31 31.57 31.31 31.57 31.31 45.42 17.47 45.42 17.47 46.04 16.85 47.04 16.85 47.67 17.47 48.29 18.09 48.29 19.1 47.67 19.72ZM 29.75 28.47C 29.43 28.77 29.03 28.93 28.62 28.93 28.21 28.93 27.81 28.77 27.5 28.47 26.88 27.84 26.88 26.84 27.5 26.22 27.5 26.22 40.83 12.88 40.83 12.88 41.45 12.26 42.45 12.26 43.08 12.88 43.7 13.51 43.7 14.51 43.08 15.13 43.08 15.13 29.75 28.47 29.75 28.47ZM 26.26 24.99C 25.95 25.29 25.55 25.45 25.14 25.45 24.73 25.45 24.33 25.29 24.02 24.99 23.39 24.36 23.39 23.35 24.02 22.73 24.02 22.73 37.35 9.4 37.35 9.4 37.97 8.78 38.97 8.78 39.6 9.4 40.22 10.02 40.22 11.03 39.6 11.65 39.6 11.65 26.26 24.99 26.26 24.99ZM 22.78 21.5C 22.47 21.81 22.07 21.97 21.66 21.97 21.25 21.97 20.84 21.81 20.53 21.5 19.91 20.88 19.91 19.87 20.53 19.25 20.53 19.25 33.87 5.92 33.87 5.92 34.49 5.3 35.5 5.3 36.12 5.92 36.74 6.54 36.74 7.55 36.12 8.17 36.12 8.17 22.78 21.5 22.78 21.5Z" fill="rgb(0,0,0)" filter="url(#filter0)"/></svg>