<?xml version="1.0" encoding="utf-8"?>
<svg xmlns="http://www.w3.org/2000/svg"
	xmlns:xlink="http://www.w3.org/1999/xlink"
	width="52px" height="36px" viewBox="0 0 52 36">
<filter filterUnits="objectBoundingBox" x="0.00" y="0.00" width="100.00" height="100.00" id="filter0">
<feFlood flood-color="rgb(85,85,85)" result="coFloodOut1"/>
<feComposite in="coFloodOut1" in2="SourceAlpha" operator="in" result="coOverlay1"/>
<feBlend in="coOverlay1" in2="SourceGraphic" mode="normal" result="colorOverlay1"/>
</filter>
<path fillRule="evenodd" d="M 51.41 14.34C 51.41 14.34 41.92 33.76 41.92 33.76 41.33 34.98 39.73 35.98 38.38 35.98 38.38 35.98 3.08 35.98 3.08 35.98 1.73 35.98 1.11 34.98 1.71 33.76 1.71 33.76 11.2 14.34 11.2 14.34 11.8 13.12 13.39 12.12 14.74 12.12 14.74 12.12 50.04 12.12 50.04 12.12 51.39 12.12 52.01 13.12 51.41 14.34ZM 9 13.25C 9 13.25 0.74 30.15 0.74 30.15 0.74 30.15 0.74 7.98 0.74 7.98 0.74 6.62 1.84 5.5 3.2 5.5 3.2 5.5 14.01 5.5 14.01 5.5 14.01 5.5 14.01 4.06 14.01 4.06 14.01 3.06 14.39 2.13 15.09 1.43 15.79 0.72 16.72 0.33 17.7 0.33 17.7 0.33 23.99 0.33 23.99 0.33 26.02 0.33 27.67 2 27.67 4.06 27.67 4.06 27.67 5.5 27.67 5.5 27.67 5.5 38.49 5.5 38.49 5.5 39.84 5.5 40.95 6.62 40.95 7.98 40.95 7.98 40.95 9.64 40.95 9.64 40.95 9.64 14.74 9.64 14.74 9.64 12.47 9.64 10 11.19 9 13.25ZM 16.47 5.5C 16.47 5.5 25.22 5.5 25.22 5.5 25.22 5.5 25.22 4.06 25.22 4.06 25.22 3.37 24.67 2.82 23.99 2.82 23.99 2.82 17.7 2.82 17.7 2.82 17.37 2.82 17.06 2.94 16.83 3.18 16.6 3.42 16.47 3.73 16.47 4.06 16.47 4.06 16.47 5.5 16.47 5.5Z" fill="rgb(0,0,0)" filter="url(#filter0)"/></svg>